<mxfile host="Electron" modified="2021-07-09T06:58:29.898Z" agent="5.0 (X11; Linux x86_64) AppleWebKit/537.36 (KHTML, like Gecko) draw.io/13.3.9 Chrome/83.0.4103.119 Electron/9.0.5 Safari/537.36" etag="nkyNOPyU3RURh-jFSBv3" compressed="false" version="13.3.9" type="device">
  <diagram id="SuTt-NehiLuuTij5P4sI" name="Page-1">
    <mxGraphModel dx="585" dy="1455" grid="1" gridSize="10" guides="0" tooltips="1" connect="0" arrows="0" fold="1" page="1" pageScale="1" pageWidth="850" pageHeight="1100" math="0" shadow="0">
      <root>
        <mxCell id="0" />
        <mxCell id="1" parent="0" />
        <mxCell id="PAhmVjMoxAMaqZg4B_g7-12" value="" style="rounded=0;whiteSpace=wrap;html=1;align=left;fontColor=#333333;gradientColor=#ffffff;gradientDirection=east;strokeColor=none;fillColor=#CCCCCC;" parent="1" vertex="1">
          <mxGeometry y="339" width="40" height="2" as="geometry" />
        </mxCell>
        <mxCell id="PAhmVjMoxAMaqZg4B_g7-11" value="" style="rounded=0;whiteSpace=wrap;html=1;align=left;fontColor=#333333;gradientColor=#ffffff;gradientDirection=east;strokeColor=none;fillColor=#CCCCCC;" parent="1" vertex="1">
          <mxGeometry y="299" width="40" height="2" as="geometry" />
        </mxCell>
        <mxCell id="PAhmVjMoxAMaqZg4B_g7-8" value="" style="rounded=0;whiteSpace=wrap;html=1;align=left;fontColor=#333333;gradientColor=#ffffff;gradientDirection=east;strokeColor=none;fillColor=#CCCCCC;" parent="1" vertex="1">
          <mxGeometry y="250" width="40" height="10" as="geometry" />
        </mxCell>
        <mxCell id="PAhmVjMoxAMaqZg4B_g7-7" value="" style="rounded=0;whiteSpace=wrap;html=1;align=left;fontColor=#333333;gradientColor=#ffffff;gradientDirection=east;strokeColor=none;fillColor=#CCCCCC;" parent="1" vertex="1">
          <mxGeometry y="120" width="40" height="30" as="geometry" />
        </mxCell>
        <mxCell id="PAhmVjMoxAMaqZg4B_g7-6" value="" style="rounded=0;whiteSpace=wrap;html=1;align=left;fontColor=#333333;gradientColor=#ffffff;gradientDirection=east;strokeColor=none;fillColor=#CCCCCC;" parent="1" vertex="1">
          <mxGeometry y="40" width="40" height="40" as="geometry" />
        </mxCell>
        <mxCell id="PAhmVjMoxAMaqZg4B_g7-5" value="" style="rounded=0;whiteSpace=wrap;html=1;align=left;fontColor=#333333;gradientColor=#ffffff;gradientDirection=east;strokeColor=none;fillColor=#CCCCCC;" parent="1" vertex="1">
          <mxGeometry y="-50" width="40" height="50" as="geometry" />
        </mxCell>
        <mxCell id="rswDAVN-zbumqpKh8glA-41" value="" style="rounded=1;whiteSpace=wrap;html=1;shadow=1;" parent="1" vertex="1">
          <mxGeometry x="80" y="380" width="240" height="20" as="geometry" />
        </mxCell>
        <mxCell id="rswDAVN-zbumqpKh8glA-29" value="" style="endArrow=none;dashed=1;html=1;strokeWidth=8;dashPattern=1 1;fillColor=#dae8fc;strokeColor=#6c8ebf;" parent="1" edge="1">
          <mxGeometry width="50" height="50" relative="1" as="geometry">
            <mxPoint x="200" y="40" as="sourcePoint" />
            <mxPoint x="320" y="40" as="targetPoint" />
          </mxGeometry>
        </mxCell>
        <mxCell id="rswDAVN-zbumqpKh8glA-31" value="" style="endArrow=none;dashed=1;html=1;strokeWidth=8;dashPattern=1 1;fillColor=#d5e8d4;strokeColor=#82b366;" parent="1" edge="1">
          <mxGeometry width="50" height="50" relative="1" as="geometry">
            <mxPoint x="80" y="50" as="sourcePoint" />
            <mxPoint x="200" y="50" as="targetPoint" />
          </mxGeometry>
        </mxCell>
        <mxCell id="rswDAVN-zbumqpKh8glA-33" value="" style="endArrow=none;dashed=1;html=1;strokeWidth=8;dashPattern=1 1;fillColor=#ffe6cc;strokeColor=#d79b00;" parent="1" edge="1">
          <mxGeometry width="50" height="50" relative="1" as="geometry">
            <mxPoint x="80" y="70" as="sourcePoint" />
            <mxPoint x="320" y="70" as="targetPoint" />
          </mxGeometry>
        </mxCell>
        <mxCell id="rswDAVN-zbumqpKh8glA-23" value="" style="endArrow=none;dashed=1;html=1;strokeWidth=8;dashPattern=1 1;fillColor=#dae8fc;strokeColor=#6c8ebf;" parent="1" edge="1">
          <mxGeometry width="50" height="50" relative="1" as="geometry">
            <mxPoint x="200" y="120" as="sourcePoint" />
            <mxPoint x="320" y="120" as="targetPoint" />
          </mxGeometry>
        </mxCell>
        <mxCell id="rswDAVN-zbumqpKh8glA-25" value="" style="endArrow=none;dashed=1;html=1;strokeWidth=8;dashPattern=1 1;fillColor=#d5e8d4;strokeColor=#82b366;" parent="1" edge="1">
          <mxGeometry width="50" height="50" relative="1" as="geometry">
            <mxPoint x="80" y="130" as="sourcePoint" />
            <mxPoint x="200" y="130" as="targetPoint" />
          </mxGeometry>
        </mxCell>
        <mxCell id="rswDAVN-zbumqpKh8glA-19" value="" style="endArrow=none;dashed=1;html=1;strokeWidth=8;dashPattern=1 1;fillColor=#dae8fc;strokeColor=#6c8ebf;" parent="1" edge="1">
          <mxGeometry width="50" height="50" relative="1" as="geometry">
            <mxPoint x="200" y="250" as="sourcePoint" />
            <mxPoint x="320" y="250" as="targetPoint" />
          </mxGeometry>
        </mxCell>
        <mxCell id="rswDAVN-zbumqpKh8glA-1" value="Hardware Resouces" style="rounded=0;whiteSpace=wrap;html=1;fillColor=#f5f5f5;strokeColor=#666666;fontColor=#333333;" parent="1" vertex="1">
          <mxGeometry x="80" y="340" width="240" height="20" as="geometry" />
        </mxCell>
        <mxCell id="rswDAVN-zbumqpKh8glA-2" value="Privilege Instrs" style="rounded=0;whiteSpace=wrap;html=1;fillColor=#f8cecc;strokeColor=#b85450;" parent="1" vertex="1">
          <mxGeometry x="80" y="300" width="120" height="20" as="geometry" />
        </mxCell>
        <mxCell id="rswDAVN-zbumqpKh8glA-3" value="User-Space Instrs" style="rounded=0;whiteSpace=wrap;html=1;fillColor=#dae8fc;strokeColor=#6c8ebf;" parent="1" vertex="1">
          <mxGeometry x="200" y="300" width="120" height="20" as="geometry" />
        </mxCell>
        <mxCell id="rswDAVN-zbumqpKh8glA-4" value="" style="endArrow=none;dashed=1;html=1;strokeWidth=8;dashPattern=1 1;fillColor=#f5f5f5;strokeColor=#666666;" parent="1" edge="1">
          <mxGeometry width="50" height="50" relative="1" as="geometry">
            <mxPoint x="80" y="340" as="sourcePoint" />
            <mxPoint x="320" y="340" as="targetPoint" />
          </mxGeometry>
        </mxCell>
        <mxCell id="rswDAVN-zbumqpKh8glA-7" value="OS Kernel" style="rounded=0;whiteSpace=wrap;html=1;fillColor=#d5e8d4;strokeColor=#82b366;" parent="1" vertex="1">
          <mxGeometry x="80" y="260" width="240" height="20" as="geometry" />
        </mxCell>
        <mxCell id="rswDAVN-zbumqpKh8glA-8" value="" style="endArrow=none;dashed=1;html=1;strokeWidth=8;dashPattern=1 1;fillColor=#f8cecc;strokeColor=#b85450;" parent="1" edge="1">
          <mxGeometry width="50" height="50" relative="1" as="geometry">
            <mxPoint x="80" y="300" as="sourcePoint" />
            <mxPoint x="200" y="300" as="targetPoint" />
          </mxGeometry>
        </mxCell>
        <mxCell id="rswDAVN-zbumqpKh8glA-9" value="" style="endArrow=none;dashed=1;html=1;strokeWidth=8;dashPattern=1 1;fillColor=#dae8fc;strokeColor=#6c8ebf;" parent="1" edge="1">
          <mxGeometry width="50" height="50" relative="1" as="geometry">
            <mxPoint x="200" y="300" as="sourcePoint" />
            <mxPoint x="320" y="300" as="targetPoint" />
          </mxGeometry>
        </mxCell>
        <mxCell id="rswDAVN-zbumqpKh8glA-17" value="" style="endArrow=none;dashed=1;html=1;strokeWidth=8;dashPattern=1 1;fillColor=#d5e8d4;strokeColor=#82b366;" parent="1" edge="1">
          <mxGeometry width="50" height="50" relative="1" as="geometry">
            <mxPoint x="80" y="260" as="sourcePoint" />
            <mxPoint x="200" y="260" as="targetPoint" />
          </mxGeometry>
        </mxCell>
        <mxCell id="rswDAVN-zbumqpKh8glA-20" value="User/3rd-part Libraries" style="rounded=0;whiteSpace=wrap;html=1;fillColor=#ffe6cc;strokeColor=#d79b00;" parent="1" vertex="1">
          <mxGeometry x="80" y="150" width="240" height="20" as="geometry" />
        </mxCell>
        <mxCell id="rswDAVN-zbumqpKh8glA-21" value="" style="endArrow=none;dashed=1;html=1;strokeWidth=8;dashPattern=1 1;fillColor=#ffe6cc;strokeColor=#d79b00;" parent="1" edge="1">
          <mxGeometry width="50" height="50" relative="1" as="geometry">
            <mxPoint x="80" y="150" as="sourcePoint" />
            <mxPoint x="320" y="150" as="targetPoint" />
          </mxGeometry>
        </mxCell>
        <mxCell id="rswDAVN-zbumqpKh8glA-26" value="System Applications" style="rounded=0;whiteSpace=wrap;html=1;fillColor=#fff2cc;strokeColor=#d6b656;" parent="1" vertex="1">
          <mxGeometry x="80" y="80" width="240" height="20" as="geometry" />
        </mxCell>
        <mxCell id="rswDAVN-zbumqpKh8glA-27" value="" style="endArrow=none;dashed=1;html=1;strokeWidth=8;dashPattern=1 1;fillColor=#fff2cc;strokeColor=#d6b656;" parent="1" edge="1">
          <mxGeometry width="50" height="50" relative="1" as="geometry">
            <mxPoint x="80" y="80" as="sourcePoint" />
            <mxPoint x="320" y="80" as="targetPoint" />
          </mxGeometry>
        </mxCell>
        <mxCell id="rswDAVN-zbumqpKh8glA-34" value="User Application" style="rounded=0;whiteSpace=wrap;html=1;fillColor=#e1d5e7;strokeColor=#9673a6;" parent="1" vertex="1">
          <mxGeometry x="80" y="-90" width="240" height="20" as="geometry" />
        </mxCell>
        <mxCell id="rswDAVN-zbumqpKh8glA-37" value="&lt;b&gt;Legend&lt;/b&gt;" style="text;html=1;align=center;verticalAlign=middle;resizable=0;points=[];autosize=1;" parent="1" vertex="1">
          <mxGeometry x="80" y="380" width="60" height="20" as="geometry" />
        </mxCell>
        <mxCell id="rswDAVN-zbumqpKh8glA-38" value="" style="endArrow=none;dashed=1;html=1;strokeWidth=8;dashPattern=1 1;" parent="1" edge="1">
          <mxGeometry width="50" height="50" relative="1" as="geometry">
            <mxPoint x="140" y="390" as="sourcePoint" />
            <mxPoint x="170" y="390" as="targetPoint" />
          </mxGeometry>
        </mxCell>
        <mxCell id="rswDAVN-zbumqpKh8glA-39" value="Interface for higher layer" style="text;html=1;align=left;verticalAlign=middle;resizable=0;points=[];autosize=1;" parent="1" vertex="1">
          <mxGeometry x="170" y="380" width="150" height="20" as="geometry" />
        </mxCell>
        <mxCell id="kDpdIPFMX5SkohTpk9ed-4" value="" style="endArrow=none;html=1;strokeWidth=1;fillColor=#dae8fc;strokeColor=#6c8ebf;" parent="1" edge="1">
          <mxGeometry width="50" height="50" relative="1" as="geometry">
            <mxPoint x="320" y="300" as="sourcePoint" />
            <mxPoint x="320" y="250" as="targetPoint" />
            <Array as="points">
              <mxPoint x="330" y="300" />
              <mxPoint x="330" y="250" />
            </Array>
          </mxGeometry>
        </mxCell>
        <mxCell id="kDpdIPFMX5SkohTpk9ed-5" value="" style="endArrow=none;html=1;strokeWidth=1;fillColor=#dae8fc;strokeColor=#6c8ebf;" parent="1" edge="1">
          <mxGeometry width="50" height="50" relative="1" as="geometry">
            <mxPoint x="320" y="300" as="sourcePoint" />
            <mxPoint x="320" y="190" as="targetPoint" />
            <Array as="points">
              <mxPoint x="330" y="300" />
              <mxPoint x="330" y="190" />
            </Array>
          </mxGeometry>
        </mxCell>
        <mxCell id="kDpdIPFMX5SkohTpk9ed-6" value="" style="endArrow=none;html=1;strokeWidth=1;fillColor=#dae8fc;strokeColor=#6c8ebf;" parent="1" edge="1">
          <mxGeometry width="50" height="50" relative="1" as="geometry">
            <mxPoint x="320" y="300" as="sourcePoint" />
            <mxPoint x="320" y="120" as="targetPoint" />
            <Array as="points">
              <mxPoint x="330" y="300" />
              <mxPoint x="330" y="120" />
            </Array>
          </mxGeometry>
        </mxCell>
        <mxCell id="kDpdIPFMX5SkohTpk9ed-7" value="" style="endArrow=none;html=1;strokeColor=#82b366;strokeWidth=1;fillColor=#d5e8d4;" parent="1" edge="1">
          <mxGeometry width="50" height="50" relative="1" as="geometry">
            <mxPoint x="80" y="260" as="sourcePoint" />
            <mxPoint x="80" y="200" as="targetPoint" />
            <Array as="points">
              <mxPoint x="70" y="260" />
              <mxPoint x="70" y="200" />
            </Array>
          </mxGeometry>
        </mxCell>
        <mxCell id="kDpdIPFMX5SkohTpk9ed-8" value="" style="endArrow=none;html=1;strokeColor=#82b366;strokeWidth=1;fillColor=#d5e8d4;" parent="1" edge="1">
          <mxGeometry width="50" height="50" relative="1" as="geometry">
            <mxPoint x="80" y="260" as="sourcePoint" />
            <mxPoint x="80.00000000000011" y="130" as="targetPoint" />
            <Array as="points">
              <mxPoint x="70" y="260" />
              <mxPoint x="70" y="130" />
            </Array>
          </mxGeometry>
        </mxCell>
        <mxCell id="kDpdIPFMX5SkohTpk9ed-9" value="" style="endArrow=none;html=1;strokeColor=#d79b00;strokeWidth=1;fillColor=#ffe6cc;" parent="1" edge="1">
          <mxGeometry width="50" height="50" relative="1" as="geometry">
            <mxPoint x="80" y="70" as="sourcePoint" />
            <mxPoint x="80" y="150" as="targetPoint" />
            <Array as="points">
              <mxPoint x="50" y="70" />
              <mxPoint x="50" y="150" />
            </Array>
          </mxGeometry>
        </mxCell>
        <mxCell id="CEWVe7HLlZmaSNWJAqid-1" value="Other User Applications" style="rounded=0;whiteSpace=wrap;html=1;fillColor=#fad7ac;strokeColor=#b46504;" parent="1" vertex="1">
          <mxGeometry x="80" width="240" height="20" as="geometry" />
        </mxCell>
        <mxCell id="CEWVe7HLlZmaSNWJAqid-2" value="" style="endArrow=none;dashed=1;html=1;strokeWidth=8;dashPattern=1 1;fillColor=#dae8fc;strokeColor=#6c8ebf;" parent="1" edge="1">
          <mxGeometry width="50" height="50" relative="1" as="geometry">
            <mxPoint x="200" y="-50" as="sourcePoint" />
            <mxPoint x="320" y="-50" as="targetPoint" />
          </mxGeometry>
        </mxCell>
        <mxCell id="CEWVe7HLlZmaSNWJAqid-3" value="" style="endArrow=none;dashed=1;html=1;strokeWidth=8;dashPattern=1 1;fillColor=#d5e8d4;strokeColor=#82b366;" parent="1" edge="1">
          <mxGeometry width="50" height="50" relative="1" as="geometry">
            <mxPoint x="80" y="-40" as="sourcePoint" />
            <mxPoint x="200" y="-40" as="targetPoint" />
          </mxGeometry>
        </mxCell>
        <mxCell id="CEWVe7HLlZmaSNWJAqid-4" value="" style="endArrow=none;dashed=1;html=1;strokeWidth=8;dashPattern=1 1;fillColor=#ffe6cc;strokeColor=#d79b00;" parent="1" edge="1">
          <mxGeometry width="50" height="50" relative="1" as="geometry">
            <mxPoint x="80" y="-20" as="sourcePoint" />
            <mxPoint x="320" y="-20" as="targetPoint" />
          </mxGeometry>
        </mxCell>
        <mxCell id="CEWVe7HLlZmaSNWJAqid-5" value="" style="endArrow=none;dashed=1;html=1;strokeWidth=8;dashPattern=1 1;fillColor=#fff2cc;strokeColor=#d6b656;" parent="1" edge="1">
          <mxGeometry width="50" height="50" relative="1" as="geometry">
            <mxPoint x="80" y="-10" as="sourcePoint" />
            <mxPoint x="320" y="-10" as="targetPoint" />
          </mxGeometry>
        </mxCell>
        <mxCell id="CEWVe7HLlZmaSNWJAqid-6" value="" style="endArrow=none;dashed=1;html=1;strokeWidth=8;dashPattern=1 1;fillColor=#fad7ac;strokeColor=#b46504;" parent="1" edge="1">
          <mxGeometry width="50" height="50" relative="1" as="geometry">
            <mxPoint x="80" as="sourcePoint" />
            <mxPoint x="320" as="targetPoint" />
          </mxGeometry>
        </mxCell>
        <mxCell id="CEWVe7HLlZmaSNWJAqid-7" value="" style="endArrow=none;html=1;strokeColor=#82b366;strokeWidth=1;fillColor=#d5e8d4;" parent="1" edge="1">
          <mxGeometry width="50" height="50" relative="1" as="geometry">
            <mxPoint x="80" y="260" as="sourcePoint" />
            <mxPoint x="80" y="50" as="targetPoint" />
            <Array as="points">
              <mxPoint x="70" y="260" />
              <mxPoint x="70" y="50" />
            </Array>
          </mxGeometry>
        </mxCell>
        <mxCell id="CEWVe7HLlZmaSNWJAqid-8" value="" style="endArrow=none;html=1;strokeColor=#d79b00;strokeWidth=1;fillColor=#ffe6cc;" parent="1" edge="1">
          <mxGeometry width="50" height="50" relative="1" as="geometry">
            <mxPoint x="80" y="-20" as="sourcePoint" />
            <mxPoint x="80" y="150" as="targetPoint" />
            <Array as="points">
              <mxPoint x="50" y="-20" />
              <mxPoint x="50" y="150" />
            </Array>
          </mxGeometry>
        </mxCell>
        <mxCell id="CEWVe7HLlZmaSNWJAqid-9" value="" style="endArrow=none;html=1;strokeColor=#b46504;strokeWidth=1;fillColor=#fad7ac;" parent="1" edge="1">
          <mxGeometry width="50" height="50" relative="1" as="geometry">
            <mxPoint x="80" y="-10" as="sourcePoint" />
            <mxPoint x="80" y="80" as="targetPoint" />
            <Array as="points">
              <mxPoint x="40" y="-10" />
              <mxPoint x="40" y="80" />
            </Array>
          </mxGeometry>
        </mxCell>
        <mxCell id="CEWVe7HLlZmaSNWJAqid-10" value="" style="endArrow=none;html=1;strokeWidth=1;fillColor=#dae8fc;strokeColor=#6c8ebf;" parent="1" edge="1">
          <mxGeometry width="50" height="50" relative="1" as="geometry">
            <mxPoint x="320" y="300" as="sourcePoint" />
            <mxPoint x="320" y="40" as="targetPoint" />
            <Array as="points">
              <mxPoint x="330" y="300" />
              <mxPoint x="330" y="40" />
            </Array>
          </mxGeometry>
        </mxCell>
        <mxCell id="KNzCa3RQMFb0k8Cp74iH-1" value="ABI&lt;br&gt;(Syscall)" style="text;html=1;align=left;verticalAlign=middle;resizable=0;points=[];autosize=1;" parent="1" vertex="1">
          <mxGeometry y="230" width="60" height="30" as="geometry" />
        </mxCell>
        <mxCell id="KNzCa3RQMFb0k8Cp74iH-2" value="&lt;b&gt;Interface&lt;br&gt;&lt;/b&gt;" style="text;html=1;align=left;verticalAlign=middle;resizable=0;points=[];autosize=1;" parent="1" vertex="1">
          <mxGeometry y="-90" width="70" height="20" as="geometry" />
        </mxCell>
        <mxCell id="KNzCa3RQMFb0k8Cp74iH-3" value="API(Lib)" style="text;html=1;align=left;verticalAlign=middle;resizable=0;points=[];autosize=1;" parent="1" vertex="1">
          <mxGeometry y="130" width="60" height="20" as="geometry" />
        </mxCell>
        <mxCell id="KNzCa3RQMFb0k8Cp74iH-4" value="SysEnv" style="text;html=1;align=left;verticalAlign=middle;resizable=0;points=[];autosize=1;" parent="1" vertex="1">
          <mxGeometry y="60" width="60" height="20" as="geometry" />
        </mxCell>
        <mxCell id="KNzCa3RQMFb0k8Cp74iH-5" value="UserEnv" style="text;html=1;align=left;verticalAlign=middle;resizable=0;points=[];autosize=1;" parent="1" vertex="1">
          <mxGeometry y="-30" width="60" height="20" as="geometry" />
        </mxCell>
        <mxCell id="PAhmVjMoxAMaqZg4B_g7-9" value="ISA" style="text;html=1;align=left;verticalAlign=middle;resizable=0;points=[];autosize=1;" parent="1" vertex="1">
          <mxGeometry y="290" width="30" height="20" as="geometry" />
        </mxCell>
        <mxCell id="PAhmVjMoxAMaqZg4B_g7-10" value="uArch" style="text;html=1;align=left;verticalAlign=middle;resizable=0;points=[];autosize=1;" parent="1" vertex="1">
          <mxGeometry y="330" width="50" height="20" as="geometry" />
        </mxCell>
        <mxCell id="ncCrzAQUgGD48uemNUsK-3" value="Sys" style="text;html=1;align=left;verticalAlign=middle;resizable=0;points=[];autosize=1;" parent="1" vertex="1">
          <mxGeometry x="350" y="260" width="40" height="20" as="geometry" />
        </mxCell>
        <mxCell id="ncCrzAQUgGD48uemNUsK-5" value="User&lt;br&gt;(User&lt;br&gt;Space)" style="text;html=1;align=left;verticalAlign=middle;resizable=0;points=[];autosize=1;" parent="1" vertex="1">
          <mxGeometry x="360" y="180" width="50" height="50" as="geometry" />
        </mxCell>
        <mxCell id="ncCrzAQUgGD48uemNUsK-8" value="" style="endArrow=none;html=1;rounded=0;" parent="1" edge="1">
          <mxGeometry width="50" height="50" relative="1" as="geometry">
            <mxPoint x="340" y="280" as="sourcePoint" />
            <mxPoint x="350" y="-90" as="targetPoint" />
            <Array as="points">
              <mxPoint x="350" y="280" />
            </Array>
          </mxGeometry>
        </mxCell>
        <mxCell id="ncCrzAQUgGD48uemNUsK-9" value="" style="endArrow=none;html=1;rounded=0;" parent="1" edge="1">
          <mxGeometry width="50" height="50" relative="1" as="geometry">
            <mxPoint x="350" y="230" as="sourcePoint" />
            <mxPoint x="360" y="-90" as="targetPoint" />
            <Array as="points">
              <mxPoint x="360" y="230" />
            </Array>
          </mxGeometry>
        </mxCell>
        <mxCell id="ncCrzAQUgGD48uemNUsK-10" value="" style="endArrow=none;html=1;rounded=0;" parent="1" edge="1">
          <mxGeometry width="50" height="50" relative="1" as="geometry">
            <mxPoint x="360" y="100" as="sourcePoint" />
            <mxPoint x="370" y="-90" as="targetPoint" />
            <Array as="points">
              <mxPoint x="370" y="100" />
            </Array>
          </mxGeometry>
        </mxCell>
        <mxCell id="ncCrzAQUgGD48uemNUsK-11" value="App" style="text;html=1;align=left;verticalAlign=middle;resizable=0;points=[];autosize=1;" parent="1" vertex="1">
          <mxGeometry x="370" y="80" width="40" height="20" as="geometry" />
        </mxCell>
        <mxCell id="EPc09F-uwxIYR0prN0li-1" value="System Libraries" style="rounded=0;whiteSpace=wrap;html=1;fillColor=#fad9d5;strokeColor=#ae4132;" vertex="1" parent="1">
          <mxGeometry x="80" y="210" width="240" height="20" as="geometry" />
        </mxCell>
        <mxCell id="EPc09F-uwxIYR0prN0li-3" value="" style="endArrow=none;dashed=1;html=1;strokeWidth=8;dashPattern=1 1;fillColor=#fad9d5;strokeColor=#ae4132;" edge="1" parent="1">
          <mxGeometry width="50" height="50" relative="1" as="geometry">
            <mxPoint x="80" y="210" as="sourcePoint" />
            <mxPoint x="320" y="210" as="targetPoint" />
          </mxGeometry>
        </mxCell>
        <mxCell id="EPc09F-uwxIYR0prN0li-4" value="" style="endArrow=none;dashed=1;html=1;strokeWidth=8;dashPattern=1 1;fillColor=#d5e8d4;strokeColor=#82b366;" edge="1" parent="1">
          <mxGeometry width="50" height="50" relative="1" as="geometry">
            <mxPoint x="80" y="199.99999999999977" as="sourcePoint" />
            <mxPoint x="200.0000000000001" y="199.99999999999977" as="targetPoint" />
          </mxGeometry>
        </mxCell>
        <mxCell id="EPc09F-uwxIYR0prN0li-5" value="" style="endArrow=none;dashed=1;html=1;strokeWidth=8;dashPattern=1 1;fillColor=#dae8fc;strokeColor=#6c8ebf;" edge="1" parent="1">
          <mxGeometry width="50" height="50" relative="1" as="geometry">
            <mxPoint x="200.0000000000001" y="189.99999999999977" as="sourcePoint" />
            <mxPoint x="320" y="189.99999999999977" as="targetPoint" />
          </mxGeometry>
        </mxCell>
        <mxCell id="EPc09F-uwxIYR0prN0li-6" value="" style="rounded=0;whiteSpace=wrap;html=1;align=left;fontColor=#333333;gradientColor=#ffffff;gradientDirection=east;strokeColor=none;fillColor=#CCCCCC;" vertex="1" parent="1">
          <mxGeometry y="190" width="40" height="20" as="geometry" />
        </mxCell>
        <mxCell id="EPc09F-uwxIYR0prN0li-7" value="SysAPI&lt;br&gt;(SysLib)" style="text;html=1;align=left;verticalAlign=middle;resizable=0;points=[];autosize=1;" vertex="1" parent="1">
          <mxGeometry y="180" width="60" height="30" as="geometry" />
        </mxCell>
        <mxCell id="EPc09F-uwxIYR0prN0li-8" value="" style="endArrow=none;html=1;strokeColor=#b85450;strokeWidth=1;fillColor=#f8cecc;" edge="1" parent="1">
          <mxGeometry width="50" height="50" relative="1" as="geometry">
            <mxPoint x="80" y="140" as="sourcePoint" />
            <mxPoint x="80" y="209.99999999999977" as="targetPoint" />
            <Array as="points">
              <mxPoint x="60" y="140" />
              <mxPoint x="60" y="210" />
            </Array>
          </mxGeometry>
        </mxCell>
        <mxCell id="EPc09F-uwxIYR0prN0li-9" value="" style="endArrow=none;dashed=1;html=1;strokeWidth=8;dashPattern=1 1;fillColor=#fad9d5;strokeColor=#ae4132;" edge="1" parent="1">
          <mxGeometry width="50" height="50" relative="1" as="geometry">
            <mxPoint x="80" y="139.99999999999977" as="sourcePoint" />
            <mxPoint x="320" y="139.99999999999977" as="targetPoint" />
          </mxGeometry>
        </mxCell>
        <mxCell id="EPc09F-uwxIYR0prN0li-10" value="" style="endArrow=none;dashed=1;html=1;strokeWidth=8;dashPattern=1 1;fillColor=#fad9d5;strokeColor=#ae4132;" edge="1" parent="1">
          <mxGeometry width="50" height="50" relative="1" as="geometry">
            <mxPoint x="80" y="59.99999999999977" as="sourcePoint" />
            <mxPoint x="320" y="59.99999999999977" as="targetPoint" />
          </mxGeometry>
        </mxCell>
        <mxCell id="EPc09F-uwxIYR0prN0li-11" value="" style="endArrow=none;dashed=1;html=1;strokeWidth=8;dashPattern=1 1;fillColor=#fad9d5;strokeColor=#ae4132;" edge="1" parent="1">
          <mxGeometry width="50" height="50" relative="1" as="geometry">
            <mxPoint x="80" y="-30.000000000000227" as="sourcePoint" />
            <mxPoint x="320" y="-30.000000000000227" as="targetPoint" />
          </mxGeometry>
        </mxCell>
        <mxCell id="EPc09F-uwxIYR0prN0li-12" value="" style="endArrow=none;html=1;strokeColor=#b85450;strokeWidth=1;fillColor=#f8cecc;" edge="1" parent="1">
          <mxGeometry width="50" height="50" relative="1" as="geometry">
            <mxPoint x="80" y="60" as="sourcePoint" />
            <mxPoint x="80" y="209.99999999999977" as="targetPoint" />
            <Array as="points">
              <mxPoint x="60" y="60" />
              <mxPoint x="60" y="210" />
            </Array>
          </mxGeometry>
        </mxCell>
        <mxCell id="EPc09F-uwxIYR0prN0li-13" value="" style="endArrow=none;html=1;strokeColor=#b85450;strokeWidth=1;fillColor=#f8cecc;" edge="1" parent="1">
          <mxGeometry width="50" height="50" relative="1" as="geometry">
            <mxPoint x="80" y="-30" as="sourcePoint" />
            <mxPoint x="80" y="209.99999999999977" as="targetPoint" />
            <Array as="points">
              <mxPoint x="60" y="-30" />
              <mxPoint x="60" y="210" />
            </Array>
          </mxGeometry>
        </mxCell>
        <mxCell id="EPc09F-uwxIYR0prN0li-14" value="" style="endArrow=none;html=1;strokeColor=#82b366;strokeWidth=1;fillColor=#d5e8d4;" edge="1" parent="1">
          <mxGeometry width="50" height="50" relative="1" as="geometry">
            <mxPoint x="80" y="259.9999999999998" as="sourcePoint" />
            <mxPoint x="80" y="-40" as="targetPoint" />
            <Array as="points">
              <mxPoint x="70" y="260" />
              <mxPoint x="70" y="-40" />
            </Array>
          </mxGeometry>
        </mxCell>
        <mxCell id="EPc09F-uwxIYR0prN0li-15" value="" style="endArrow=none;html=1;strokeWidth=1;fillColor=#dae8fc;strokeColor=#6c8ebf;" edge="1" parent="1">
          <mxGeometry width="50" height="50" relative="1" as="geometry">
            <mxPoint x="320" y="299.9999999999998" as="sourcePoint" />
            <mxPoint x="320" y="-50" as="targetPoint" />
            <Array as="points">
              <mxPoint x="330" y="300" />
              <mxPoint x="330" y="-50" />
            </Array>
          </mxGeometry>
        </mxCell>
      </root>
    </mxGraphModel>
  </diagram>
</mxfile>
